<svg xmlns="http://www.w3.org/2000/svg" viewBox="0 0 100 100" version="1.1" >
  <defs >
    <path d="M8.707 49.883c0-22.87 18.54-41.41 41.41-41.41 22.87 0 41.41 18.54 41.41 41.41" id="top-text" transform="rotate(10 50 50)"/>
    <path d="M8.5 50a41.5 41.5 0 1083 0 41.5 41.5 0 10-83 0" id="bottom-text" transform="rotate(-63 50 50)"/>
  </defs>
  <circle cx="50" cy="50" r="50" fill="#000" />
  <circle cx="50" cy="50" r="47" fill="none" stroke="#fff" stroke-width="3" />
  <circle cx="50" cy="50" r="30" fill="none" stroke="#fff" stroke-width="2" />
  <text dy="7.5" fill="#fff" font-size="12" letter-spacing="3" font-family="'M PLUS 1p',sans-serif">
    <textPath href="#top-text">米国田宮流居合術</textPath>
  </text>
  <text dy="1" fill="#fff" font-size="12" letter-spacing="2" font-family="'M PLUS 1p',sans-serif">
    <textPath href="#bottom-text">元楠会</textPath>
  </text>
  <g transform="matrix(.2106 0 0 .214 -34.228 -34.977)" fill="#fff">
    <path d="M389.67 379.66c1.06-1 3.46-2.56 8.21-2.74a1 1 0 00.94-1c0-10.72-.09-27.82-.09-27.82h2v27.65a1 1 0 00.94 1c2.06.12 7.06.8 10.83 4.25a1 1 0 001.48-.17c9.88-14.53 36.22-57.77 36.22-57.77s4.64-23.33-13.68-34.45c-18.32-11.12-27.85-12.45-34.2-24.79 0 0-.37-2-3.06 0s-.85 7.82-23.57 19.05-30.42 23.95-32 30.05c-1.58 6.1 2.08 14.17 9.53 23.09 6.74 8.06 30.48 37.87 35 43.53a1 1 0 001.45.12z" />
    <path d="M416.55 384.46a16.5 16.5 0 012.82 5.09 1 1 0 001.27.62c20.79-6.93 26-8.48 26-8.48l.49 1.59-26.06 8.53a1 1 0 00-.67 1.1 26.76 26.76 0 01.07 8.55 1 1 0 00.71 1.14c17.93 5.08 67 17.94 67 17.94A36.67 36.67 0 00507.39 410c8.18-8.79 11.23-19.3 12.33-29.19 1.1-9.89 4.77-17.47 7.58-20.77a4 4 0 001.71-3.42c-.25-2.07-3.06-2.07-3.06-2.07s-22.59-13.07-31.39-23.33c-8.8-10.26-19.42-13.66-25.56-13.41-6.14.25-10.75-1.83-21.5 15.63-9.88 16.06-28.17 45.25-31.06 49.86a1 1 0 00.11 1.16z" />
    <path d="M418.41 406.61a20.51 20.51 0 01-3.13 5 1 1 0 000 1.2c4 5.56 16.9 22.84 16.9 22.84l-1.83 1.23-16.75-23a1 1 0 00-1.26-.3c-1 .52-3.42 3.22-9.49 3.59a1 1 0 00-1 1c.06 13.95 1.34 65.61 1.34 65.61s8.92 16.37 24.43 16.49c15.51.12 38-4.27 45-.49 0 0 4.7 1.35 5.55 3.06.85 1.71 2.93.36 2.69-2.08-.24-2.44-.49-18.2 9.28-35.3 9.77-17.1 7.58-27 6.48-32.74-1.1-5.74-5.38-8.3-13.2-9.77-7.23-1.36-56.5-14.94-63.85-17a1 1 0 00-1.16.66z" />
    <path d="M397.51 417.5a15.54 15.54 0 01-7.82-2.37 1 1 0 00-1.3.24c-6.51 8.51-16.47 22.27-16.47 22.27l-1.71-1.22 16.29-22a1 1 0 00-.15-1.34 23.45 23.45 0 01-5.13-6.33 1 1 0 00-1.19-.5c-10.32 3.57-65.64 20.42-65.64 20.42s-15.51 6.23-9 32.86c0 0 .85 7.21 7.57 18.81a38.76 38.76 0 015.38 22.24s-.61 3.36 2.81 3.08c0 0 .24-2.35 19.66-2.47 19.42-.12 45.2 4.64 54.73-6.72 6.35-7.09 4.48-18.2 4.5-26.14 0-7.23-1.29-43.45-1.53-49.85a1 1 0 00-1-.98z" />
    <path d="M379.74 401.6a20.86 20.86 0 01-.4-7.4 1 1 0 00-.68-1.11c-8-2.27-25.55-8.1-25.55-8.1l.61-2.44L379 390.9a1 1 0 001.27-.66 14.93 14.93 0 014.47-7.13 1 1 0 00.14-1.36c-7.73-10.55-40.71-52.09-40.71-52.09s-5.37-10.14-29.07-1.83c0 0-17.83 9.16-26.38 16.85a95.15 95.15 0 01-16.25 12c-1.34.86-3.79 1-1.46 4.64 2.33 3.64 9.28 22.48 11.36 32.13 2.08 9.65 8.79 28.83 17.83 30.17 9.04 1.34 17.59-1.1 26.38-3.66 8.07-2.36 46.21-15.08 52.49-17.17a1 1 0 00.67-1.19z" />
  </g>
  <circle cx="50" cy="50" r="3.7" fill="#fff"/>
</svg>