<svg xmlns="http://www.w3.org/2000/svg" width="494.667" height="152" viewBox="0 0 371 114"><path fill="#303030" stroke="#212121" d="M60.52 58.98V72h-27v42H44.5v-5.02h48.02v3.52h10.98V72h-32V58.98h43V49h-43V36.48h20.52V38H103V3.5H13.02v60c0 14.67-4.18 27.67-12.52 39l9 8C19.16 97.84 24 83.84 24 68.5v-9.52h36.52zm32 41.02H44.5V80.98h48.02V100zM24 49V36.48h36.52V49H24zm68.02-22.5H24V13.48h68.02V26.5zM190.5 3l-13-2.5c-7.67 19-23.67 34.17-48 45.5l7 9.5c8-3.66 15-8 21-13v9.48h56V42H158c10.66-7.33 19-17.16 25-29.5 13 18 30.83 31.17 53.5 39.5l5-11.5C220.16 33.84 203 22.34 190 6c2.66-1.66 2.83-2.66.5-3zm-32 103.48h53.52v5.02H223v-48h-75.48V113h10.98v-6.52zm0-33h53.52V96.5H158.5V73.48zM336 18c-2.67-4.66-5.34-8.16-8-10.5l-7 5.5c2.33 3.67 4.66 7.5 7 11.5l8-6.5zm-71 18c11.66-8.66 20.33-17.66 26-27 2.33 0 2.83-.83 1.5-2.5l-8.5-6c-5.34 10.34-13.5 19.17-24.5 26.5l5.5 9zm38 15.5l-9-1.5c-.34 13-2.67 26.34-7 40l9.5 3.5c4.66-14.33 6.83-27.33 6.5-39 2-1.33 2-2.33 0-3zm20.5-.5c3 9.34 4.66 20.84 5 34.5l9.5-1c-1-13-2.84-24.5-5.5-34.5l-9 1zm15-34.02h28V7h-28v9.98zm-3 20.5V27.5h-17v-22c2.33-1.66 2.16-2.66-.5-3h-10.48v25H293v9.98h14.52v72.02h10.98V37.48h17zm1 10.5h11.02V102c0 1-.18 1.5-.52 1.5h-9.5l2 9.98H350c5.66 0 8.5-2.99 8.5-8.98V47.98H371V38h-34.5v9.98zM282 46.5c3-5 5.5-9.83 7.5-14.5 2.33 0 2.66-.83 1-2.5l-8-4.5c-6.34 14.67-14.67 26-25 34l5 10c3.29-3.33 6.13-6.5 8.52-9.5v54H282v-67z"/></svg>