<svg xmlns="http://www.w3.org/2000/svg" width="446.4" height="587.2" viewBox="0 0 837 1101"><path fill="#263238" stroke="#000" d="M692 12.15c7.38 4.67 15.42 10.19 15.96 19.85.57 10.28-5.13 20.75-10.84 29-7.82 11.28-20.19 21.53-33.12 26.47l-15 4.63-7 2.8c-4.43 1.47-15.2 3.65-20 4.1-5.74-5.36-7.83-1.41-12.48-3.82-3.44-1.78-4.14-5.93-5.52-9.18 18.16-15.77 41.96-39.91 51.82-62 1-2.25 2.22-5.08 2.22-7.58.13-4.99-2.52-4.57 0-10.42L656 5V4c13.36-8.81 24.7 1.01 36 8.15zM507 4.56c4.32 1.12 8.37 4.49 12 7.01 7.54 5.22 15.55 10.87 19.71 19.43 3.97 8.14 3.71 21.41 1.25 30-1.79 6.22-5.42 14.56-8.9 20-1.7 2.66-5.73 6.73-5.22 9.91.48 3.07 6.68 7.6 9.16 9.32l22.96 12.45L566 119l-4-11c11.08 1.5 16.05 6.57 25 12.66 7.12 4.84 23.71 15.5 28.99 20.85 3.32 3.38 5.57 7.59 8.2 11.49 2.63 3.89 6.21 9.38 7.24 14 3.29 14.75-17.81 23.78-28.34 16.41-4.15-2.92-7.95-11.78-10.69-16.41l-18.15-31c-2.69-4.47-4.89-10.21-8.25-14l-.73 14c.14 2.75 1.41 5.23.9 8-1.1 6.05-13.14 15.86-18.17 19.24-3.79 2.55-14.48 7.2-19 8.64-3.12 1-10.4 3.15-12.4 5.54-1.91 2.27-1.59 5.78-1.6 8.58v23l16-6.55 13-4.51 21-8.8 9-4.14-5 17 3-3c5.28 2.62 12.03 11.39 17 15.83l11.91 10.18c10.75 11.26 18.26 25.51 23.67 39.99 1.87 5.01 5.76 18.96 4.82 23.96-1.44 7.67-15.81 11.16-22.4 11.77-3.05.28-5.17.87-7.79-1.2-4.3-3.39-6.61-11.48-8.24-16.53l-11.29-37-8.29-25-1.39-14c-5.47 2.83-6.12 6.47-11.09 10.17-7.7 5.74-31.98 19.28-40.91 21.83l1.51 9c2.1 9.71 8.27 29.06 8.48 38 .07 3.4.19 6.91-1.88 9.81-3.98 5.59-19.31 8.38-25.07 4.47-3.2-2.18-5.21-5.69-6.45-9.28-2.44-7.1-7.7-26.13-6.59-33l-1-1-30 17.85-22 13.84c-3.07 1.98-8.56 5.86-12 6.63-6.01 1.36-11.01-5.14-12.43-10.32-.66-2.37-.57-5.52-.57-8-.01-4.3-.24-10.02 1.65-13.95 1.61-3.34 7.36-7.25 10.39-9.64l19.87-16.26c11.85-9.38 27.17-28.81 32.09-43.15l-56 23.46c-19.67 8.87-48.52 23.04-70 23.53-12.95.29-23.63-3.01-30.35-14.99-3.82-6.8-2.22-13.8-2.22-21 0-5.13-1.25-9.4 3.32-13.41 1.59-1.41 6.9-2.05 9.25-2.45 3 4.21 8.63 1.44 13 0l33-13.33 45-19.95 16-6.02 19-8.42 24-10.02c2.8-1.16 9.62-3.68 11.4-5.81 2.47-2.96 2.16-17.11 2.6-21.59l-19 3.7-12 .76c-11.65 2.05-16.19 4.53-29 4.54l18.49-18.28c9.06-9.99 23.49-31.77 30.64-43.72 4.37-7.3 10.68-16.95 13.23-25 1.64-5.83.11-6.94 0-12L496 4c3.11 0 8.13-.19 11 .56zm224.15 85.02l7.92 8.38c6.03 6.34 11.6 11.3 10.82 21.04-.41 5.18-4.83 14.48-7.52 19-12.23 20.62-32.1 32.34-43.37 45.68h22c3.17-.34 4.42-1.6 8-.92 4.12.78 10.06 4.93 14 6.96 5.24 2.7 11.53 6.23 13.35 12.28 1.95 6.5-2.55 8.88-4.65 14-1.89 4.59-1.65 10.14-1.7 15l-1 15c-.02 10.18.9 21.3-2.55 31-1.46 4.12-3.67 8.78-8.47 9.52-2.65.4-5.48-.71-7.98-1.52-1.8 7.38 1.79 13.43-5.05 14.87H720h-29l-9-1.58-9-.77c-5.08-1.05-6.68-3.19-10-4.17-6.75-1.99-11.07 2.35-15.21-1.78-5.78-5.78-7.64-19.76-9.3-27.57l-8.58-58c-1.62-8.51-4.92-10.51-5.91-17l12 6-1-4c8.99 4.25 9.41 11.29 15 6-2.36-2.47.01-5.98 1.28-8.89L667.36 167l26.5-44c5.42-9.66 15.54-25.09 16.66-36 .38-3.74-1.14-7.29-1.52-11 9.87 1.05 15.52 7.04 22.15 13.58zM636 110.5l7.91 3.5c2.76 1.8 4.71 4.64 7.13 6.87l7.75 6.26c3.39 3.54 9.36 13.92 9.87 18.87 1.42 13.67-14.2 19.58-25.64 13.61-4.8-2.5-6.48-7.02-8.77-11.61-4.73-9.44-8.94-19.05-12.46-29-1.47-4.16-6.69-8.86-4.17-12.94 5.02-1.64 13.73 2.22 18.38 4.44zM517 108l1 5 1-5h-2zm-382.29 52l1.21-9v-10c.11-4.64-.01-8.57 6.08-7.64 2.44.37 4.86 1.65 7 2.82 4.58 2.5 9.48 5.55 11.13 10.82 1.23 3.93-.68 8.03-1.37 12L156 184l25-4.66c5.51.04 10.52 2.76 15 5.66 3.68 2.39 7.65 4.52 10.42 8.04 6.75 8.72 4.79 16.87 0 25.96-8.38 16.01-20.94 25.34-30.42 39 10.93.03 35.04 2.46 45 6.1 6.71 2.46 8.45 4.42 14 7.96 7.86 5.03 16.87 7.43 15.89 18.94-.4 4.71-5.14 12.87-7.71 17-9.86 15.89-25.67 29.91-45.18 30-4.38.02-7.83.2-12-1.48-5.9-2.38-7.13-5.84-14-5.52l16.86 9.5c1.22 1.03 2.03 2.05 2.77 3.52 1.14 2.84.5 7.9 0 10.98-.4 3.58-.66 6.71-3.78 9.01-3.96 2.92-9.14 3.65-13.85 4.27-7.35.97-19.86 2.47-27 1.72l1.91 16-1.91 14c16.43-2.22 43.8-10.98 59-11l32-1 43 1 10 .62 13-1.45c2.52-.2 6.62-.26 9 0l8 2.54 20 4.64c5.08 1.15 12.92 2.55 16.72 6.18 8.38 7.99 3.58 28.66-13.44 28.32-13.96-.27-10.98-2.55-20.28-5.41l-29-7.02c-10.71-2.35-33.97-7.37-44-7.42-8.23-.04-21.83-1.53-30-3 .33 2.51.98 5.52.62 8-.82 5.73-8.75 17.51-11.87 23l-6.7 14L188 478l40 14.46 15 7.34c8.06 3.55 9.78 1.13 26 10.56 10.06 5.85 15.96 7.33 14.28 19.64-.33 2.41-.27 5.5-2.59 6.94-1.62 1.01-4.73.69-6.69.89l-5 .55c-2.77-.08-15.1-3.88-18-5.12l-18-9.27-10-5.94-26-9.69-19-3.36c-2.59 10.86-13.66 21.42-23 26.94l-18 9.21c-3.75 1.22-7.18.6-11 1.15-6.3.9-12.57 2.74-19 2.67-4.89-.06-5.84-1.31-9-1.8-3.57-.18-3.05.92-10 0 2.48-6.22 5.45-6.91 9.68-11.32 2.1-2.21 2.92-3.76 5.5-5.8l8.53-5.47c8.04-5.91 23.05-19.97 29.29-27.58-4.9-1.95-24.27-7.16-29-6.93-6.65.32-8.58 4.68-14 5.64-8.95 1.58-22.95-8.57-23.7-17.71l4.7-24c-7.55 1.35-18.45 1.74-26 .56l-11-2.27-30-4.73L0 438v-6c8.02-.79 10.54.91 18 1h14c19.22-.03 36.1-5.23 54-11.5 4.9-1.71 22.62-7.95 25.59-10.91 2.3-2.31 4.32-8.39 5.61-11.59l8.7-22c1.3-6.4-3.75-6.06-7.73-8.87l-5.15-4.72c-4.89-5.01-4.18-6.68-1.02-12.41l6.04 1.08L139 343l1-6.78c-5.98-.75-7.65 1.24-12 0-5.87-1.19-12.55-9.48-13.4-15.22-.36-2.42.73-5.66 1.4-8 7.84 1.25 12.48-2.64 20-4l-1-14-14 7.89c-6.85 3.55-16.02 7.73-22 12.49l-22 17.2c-2.42 1.76-7.5 5.76-10 6.69-14.29 5.27-19.5-13.75-18.89-24.27L53 295c3.47-.98 12.12-4.12 15-5.97 5.24-3.35 14.84-14.02 19.42-18.94l8.58-8.1 12-11.82c6.5-5.87 20.31-15 24-22.17-14.63-4.87-25.08-29.41-25.91-44-.29-5.04.27-9.35 3.91-13 8.51 9.09 12.55 16.88 26 17l-1.29-28zM648 202c3.83 10 10.81 16.76 12 30 17-4.51 34.43-7 52-7 0-3.28.43-14.34-1.07-16.77-1.99-3.21-8.45-4.61-11.93-5.46-12.1-2.97-6.97-2.05-19-2.86l-7-.52-8 1.61 1-3-18 4zm41 49.37L668 258l1 11h11l30.93-2v-8.28L712 246l-23 5.37zm-502 35.06l-18-3.56c-3.24-.44-9.67-1.31-12.07 1.71-1.81 2.5-.39 8.46 0 11.42.16 2.58-.06 6.38 1.36 8.58 3.2 4.98 19.98 3.97 18.19 12.59L175 322c11.57-4.43 21.84-20.08 24-32l-12-3.57zm-28.02 43.96c-1.18 1.7-1.59 4.58-1.98 6.61l1 1c8.1-2.13 5.21-3.86 9.42-8.79L173 324c-4.22-.14-11.5 2.78-14.02 6.39zM120 368l1 1v-1h-1zm20 57c-2.22 16.85-2.5 21.48-8 38 3.43 1.51 18.81 7.14 21.79 6.23 3.27-1.01 6.54-10.06 7.93-13.23l12.14-27c2.64-5.92 5.05-8.36 6.14-15-13.98 1.13-26.63 7.4-40 11zm574 7.29c18.35 4.82 47.19 26.26 61.17 39.3 6.95 6.48 17.48 17.18 20.37 26.41 1.55 4.92 1.17 9.16 1.74 14l2.54 27-1.74 13v14L796 594l-1 18-1 32 1 15v20l1 16v28l1 15v15l8.71 66 1.46 19 6.11 51 6.45 42 5.4 40 4.95 28c3.97 23.52 5.14 35.16 5.8 59 .45 16 2.42 15.44-.88 33-6.8 1.98-7.57 5.46-13 7.3-2.45.83-4.56.55-7 .96-19.14 3.14-14.13-.24-27-1.26l-12.47-12.01-3.42-5.73-9.22-10.34-16.63-7.88-8.26-6.43-35-11.61 3-2-2-4h8l-10-5.66-14-7.45-22-6.89 16 1.83c4.93 1.23 4.01 3.66 15 4.17v-3l14 1-7.89-4.39L695 1010c5.12 1.25 24.55 4.08 28.94 2.26 2.49-1.03 2.89-2.08 4.06-4.26l30 2-1.17-12-3.26-23-7.29-40-6.56-49-3.44-21-3.57-31-2.99-25-1.55-10-1.34-18-8.83-76-1-36-1.04-17v-13l-.96-12-1-48v-22l1-17v-47l-1.39-17-2.99-10-1.34-9c-2.45-8.81-8.06-16.31-6.28-26 3.91.47 7.09.26 11 1.29zM704 440l1 1v-1h-1zM103 817.41c12.57-7.94 24.46-17.33 36-26.72l12.66-11.11c3.7-3.91 2.9-5.13 8.51-10L192 743.72c20.74-18.25 40.87-37.75 59.96-57.72 16.53-17.29 45.95-59.85 61.94-81l33.37-42 31.35-37 23.43-29.99L425 473.09l7.71-6.55c2.15-2.02 4.64-4.78 5.71-7.54 1.16-3 1.04-8.08 4.79-10.26 2.7-1.57 5.51.59 7.79 1.97 4.76 2.88 12.03 8.34 16.42 11.92 4.38 3.57 6.89 3.3 12.58 8.47a66.8 66.8 0 0 1 7.33 7.9c8.26 10.5 9.71 20.42 5.11 33l-3.44 8c6.08 2.44 16.4 11.51 22 15.92l12.96 9.09c6.92 5.57 21.33 22.25 25.16 29.99 5.49 11.09 2.99 20.85-2.93 31-1.5 2.57-2.94 6.26-5.41 7.86-4.32 2.81-8.28 1.11-12.78 1.27l-6 .94c-11.06 1.19-20.44-7.14-28-13.79-12.72-11.19-31.04-29.05-38.47-44.28L451 544c-11.64 8.34-22.66 25.15-30.86 37l-30.72 42.28-7.86 12.72c-9.37 13.35-22.83 23.92-29.56 39 8.73-.41 5.58.76 11 1.69 1.68.29 14.09-.3 16-.73 22.06-4.95 52-22.25 72-24.93 2.59-.23 5.41-.53 8 0 8.5 1.32 19.9 9.2 18.49 18.97-1.01 7.09-5.21 10.09-10.49 14.13-11.53 8.81-11.21 8-23 15.07-2.79 1.67-9.76 5.43-11.27 7.98-1.47 2.46.1 6.97.54 9.82l2.73 23c19.24-4.85 39.29-5.23 59-5 11.47.14 21.6 1.58 32 6.54 9.34 4.45 19.51 10.46 21.53 21.46.61 3.31.5 5.97-1.1 9-2.52 4.77-12.81 13.14-17.43 16.34-15.22 10.54-11.91 7.18-27 13.53l-12 5.44-13 3.9c-6.39 2.58-11.49 7.24-17 11.2L448 831c17.7 7.16 40.26 26.66 55.42 38.81 9.01 7.22 19.41 14.54 24.6 25.19 7.13 14.62.97 26.01-12.02 34.01-2.15 1.33-4.64 3.27-7 4.02l-5 .68c-4.22.72-6.49 3.01-11 1.38-8.11-2.94-17.15-16.19-22.66-23.09l-25.05-28L429 864c0 20.56-1.41 16.3-4.54 34l-1.5 14c-3.77 16.01-13.45 36.32-21.01 51l-12.49 24-32.42 30.09-11.92 14.15c-4.86 4.65-17.04 12.26-23.12 15.96-8.95 5.44-17.77 11.04-28 13.8l1-3-26.83 1.9-6.21.51-6.96-1-12.96 1.28L231 1058v-3l-6 2 1-4-5 1c6.33-8.84 10.71-10.1 16.66-16.43l4.86-6.83 6.47-5.78 8.1-8.54 42.19-35.93C319.71 962 341.68 935.29 353 910l5.56-11L369 872c1.02-3.01 4.4-10.95 2.89-13.71-1.57-2.84-4.56-2.16-6.89-.86-5.41 3.03-9.95 7.66-17 7.29-7.9-.41-20.72-12.12-25.91-17.72-7.83-8.45-21.72-27.8-27.2-38l-7.29-15-7.04-13.97c-.73-1.32-1.85-3.62-3.72-3.28-1.46.26-8.53 7.38-10.12 8.86-6.64 6.18-15.36 12.67-22.72 18.11-9.96 7.35-27.57 20.53-38 26.09-5.68 3.03-7.22 1.3-14 4.63l-23 11.15c-3.04.57-4.87-.54-8 0l-12 4.56c-2.45.61-6.3-.03-9 0l1-4.15c-7.55.69-10.03 3.38-12.96 3.3-3.93-.09-3.87-3.56-8.22-2.92-9.87 1.46-13.98 8.13-22.82 4.62l1-3H86v-4c5.1-3.44 9.39-6.22 12-12l-5 2 4-6-15 4c3.1-4.84 15.64-11.2 21-14.59zM716 482l1 1v-1h-1zm1 15l1 1v-1h-1zM598 599.69l11 3.58 10 5c17.48 7.94 36.16 18.3 45.83 35.73 4.98 8.97 8.15 28.68 8.17 39v7c-.01 8.52-.69 6.17-1.81 13-4.66 28.61-14.3 50.18-24.14 77l-6.24 20c-.58 2.93-.79 9.58-2.1 11.57-1.33 2.02-3.66 2.34-5.71 3.28l-6.42 3.35c-4.85 1.6-5.14-1.36-10.58 4.8l-6-1.41c-5.62-.69-10.18 3.34-16.91 0-8.87-4.44-16.19-24.53-19.95-33.59-1.65-3.97-3.94-8.63-3.88-13l1.27-13 3.5-9 5.84-23 10.43-56 1.65-9v-20c-.13-14.46-5.32-16.49-9.81-27-5.3-12.41-2.11-7.94-4.14-17l8 1v-5l3 1c2.65-2.23 6.11.52 9 1.69zM349 677l1 1v-1h-1zm-1 1l1 1v-1h-1zm-8.03 11.58L331.95 700l-4.49 8-6.71 10-8.25 14-9.87 14-6.49 8-2.14 5c7.81 3.8 19.36 9.73 26 15 3.24 2.58 9.1 9 13.01 9.14 4.94.18 15.56-8.74 19.99-11.68 6.44-4.26 31.94-17.14 39-18.46l1.81-9 3.19-21c-7.24.33-13.72 1.59-21-.96-15.84-5.56-27.21-25.91-28-42.04l-8.03 9.58zM446 771l-10-1v25c6.67-1.42 8.16-4.47 13-8.83 6.64-5.98 9.21-6.93 14-15.17h-17zm-89 22.8c-2.74 2.12-7.33 5.34-7.3 9.21.03 3.03 3.46 6.69 5.3 8.99 2.83 3.55 7.09 10.42 12 10.45 2.44.01 5.68-1.67 8-2.51 1.93-.7 4.82-1.23 6.27-2.67 2.17-2.18 2.57-8.25 3-11.27l3.73-30c-5.82 1.83-25.92 13.88-31 17.8zM772 780l1 1v-1h-1zm-359 85l1 1v-1h-1zm333 55l1 1v-1h-1zm-479 113l1 1v-1h-1zm479 26v2l7-1-7-1z"/></svg>