<svg xmlns="http://www.w3.org/2000/svg" width="1986.662" height="194.667" viewBox="0 0 1490 146"><path fill="#263238" stroke="#212121" d="M352.39 6.05c3.06-5.56 11.53-7.59 16.1-2.66 1.82 1.96 3.46 6.96 4.51 9.61-2.34 2.5.78 4.48 2.08 7.09 3.61 7.19 2.1 10.37 13.92 9.7L425 27c6.95-.03 14.09.07 20.96-1.14 5.33-.94 4.43-4.61 8.25-6.26 2.43-1.05 17.98-.56 21.79-.58 3.57-.07 8.79-1.13 11.9 0 3.44 1.3 3.82 3.8 7.2 4.66l11.9.71c3.22.31 12.01-.79 14.83-2.33 3.18-1.74 4.84-4.93 10.17-5.84 5.66-.96 10.44.81 14 .66l8-.87h22c8.57.15 6.57 2.82 12.09 4.96 2.9 1.13 6.81 1.03 9.91 1.09h93L709 24h11l11-.68L776 25l3-3-2 3c7.28-1.11 18.58.91 26 1h17l24 1.91 44 2.18L922 32l32 2.91L992 37l28 3h8l21 3h8l17 2.92h17l41 4.91 36 3.33 19 2.84h11l34 4.29 8 1.54 18 1.34 15 2.55 37 4.46 16 2.79 42 5.75 58.96 9.01 7.13.68L1453 93l21 3.76c2.72.46 8.7 1.33 10.78 2.88 3.96 2.96 5.39 11.67 5.13 16.36-.55 9.63-1.31 29.23-13.91 29.96-6.48.37-13.48-1.89-20-2.83l-47-6.98-15-1.59-12-2.27-29-3.42-15-2.59-22-2.44-9-1.68-15-1.44-39-5.44-8-.56-24-3.55-28-3.17h-8l-19-2.83-40-3.34-31-3.66-23-1.34-19-2.79h-8l-16-1.87-23-1.26L972 88l-13-1h-9l-27-2-10-.91L888 83l-15-1-18-1h-19l-15-1-24-1.09-12-.91h-23l-23-.84h-29-57c-1.74 7.21-3.78 10.71-11 13.47-1.65.62-3.88 1.3-5.62.72-3.03-1.01-4.42-5.61-6.87-7.51-4.12-3.2-15.63-3.23-20.51-1.84 5.18.73 16.92 2.66 20.3 6.53 5.57 6.38 2.01 20.6-6.3 22.9-5.7 1.57-18.32-3.38-24-5.34l-16-2.6c-4.8-1.05-12.77-4.46-17.58-4.31-2.74.09-3.81 1.65-8.14 1.6L529 97.47 516 98l-12-.9-17 2.66-9 2.05c-5.34.55-6.71-1.48-11-.94l-16 3.67-8 .92-26 5.54c1 2.45 4.43 8.63 3.68 10.86-2.01 5.99-16.6 2.92-20.42.54-3.48-2.17-6.77-11.34-8.47-15.4-1.39-3.33-4.01-10.41-1.05-13.4 2.82-2.85 6.07.37 14.26-1.6v-2h-2l1-4-21 1c-.42 9.14-1.48 21.43-7.85 28.43-4.76 5.24-15.7 2.81-17.15-14.43l3 1-3-10-3 1c-.79-1.24-1.06-2.1-2.41-2.98-3.37-2.17-15.22.39-19.59.81l-18 2.08-21 1.37-21 3.3-20 1.59-28 3.68-15 1.42-17 3.29-23 2.87-16 3.28-16 1.73-16 3.12-24 3.19-20 3.53-47 7.95c-4.32 1-17.25 4.61-20.9 3.17-3.24-1.28-4.9-5.3-5.88-8.4-2.01-6.4-4.29-21.23-4.22-28 .06-4.73.14-9.87 5.06-12.16 3.79-1.77 17.97-3.21 22.94-4.21l9-2.21 23-3.62 21-4.5 6-.51 9-2.17 9-1.23 26-4.96 13-1.72 11-2.27 50-7.74 14-3.49 33-3.42 7-1.67 17-2.68 54-6.61L349 32c0-8.48-.84-18.24 3.39-25.95zM859 24l-1 1v-1h1z"/></svg>