<svg xmlns="http://www.w3.org/2000/svg" width="120" height="121.333" viewBox="0 0 90 91"><path fill="#263238" stroke="#212121" d="M54.03 63.03V36.86H34.11v-6.69h14.06v-6.98H17.7c4.17-3.13 8.21-7.29 12.11-12.5 9.12 4.95 17.71 10.54 25.78 16.79l4.69-7.42c-6.77-4.94-15.49-9.76-26.17-14.45l.78-.78c1.82-.26 2.21-.91 1.17-1.95L28.25.14C22 10.3 12.88 18.11.91 23.58L5.2 31c3.13-1.3 6.12-3.12 8.99-5.47v4.64h12.94v6.69H7.59v28.12h6.99v-3.56h12.15c-.51 10.06-8.46 17.11-23.87 21.14l3.52 7.82c11.45-3.13 19.78-8.86 25-17.19 7.28 4.17 13.53 8.85 18.75 14.06l5.46-7.03C49.6 75.01 42.18 70.2 33.33 65.77c.52-1.57.78-3.01.78-4.35h12.94v1.61h6.98zm8.81-50.78v57.81h7.99V14.59c1.82-1.3 1.69-2.08-.39-2.34h-7.6zM47.05 54.44H34.11v-10.6h12.94v10.6zm-32.47 0v-10.6h12.55v10.6H14.58zM70.44 81L72 89.98h9.77c4.16 0 6.25-2.21 6.25-6.64V4.83c1.82-1.3 1.69-2.08-.39-2.35h-7.6v76.96c0 1.04-.46 1.56-1.39 1.56h-8.2z"/></svg>