<svg xmlns="http://www.w3.org/2000/svg" width="130.667" height="132" viewBox="0 0 98 99"><path fill="#263238" stroke="#212121" d="M58.91 58.34c2.02.3 2.45-.28 1.29-1.73l-8.23-6.06c-3.76 6.06-7.81 11.26-12.14 15.61-5.2-3.76-11.85-7.52-19.94-11.28l-6.08 7.37c7.52 3.47 13.74 7.09 18.64 10.84-7.51 6.07-17.34 11.27-29.48 15.61l4.78 9.53c11.84-4.04 22.83-10.39 32.95-19.07 4.34 3.18 9.68 8.09 16.03 14.75l6.52-8.68c-5.5-5.2-10.7-9.69-15.61-13.45 4.63-4.62 8.38-9.1 11.27-13.44zm11.39-1.29c0 17.63 2.85 29.34 8.56 35.12 7.8 8.38 13.29 8.1 16.47-.87-.29.58.58-3.17 2.61-11.27l-8.67-5.2c0 .57-.44 3.03-1.32 7.36-.57 3.19-1.87 3.48-3.89.87-3.18-4.05-4.78-12.14-4.78-24.28V40.56h-75v8.99H70.3v7.5zM21.19 34.81h53.76v-8.98H21.19v8.98zm9.97-29.36c2.02-.29 2.45-1.01 1.29-2.17L23.78.25C18.88 12.09 11.07 21.92.38 29.73l6.5 7.36c6.64-4.43 12.42-10.25 17.34-17.45h64.61v-8.98H28.56l2.6-5.21z"/></svg>