<svg xmlns="http://www.w3.org/2000/svg" width="273.09" height="253.888" viewBox="0 0 256 238"><path fill="#212121" stroke="#212121" d="M145 14.58c7.59 4.73 21.56 10.32 26.61 16.46 4.14 5.03 8.73 19.58 7.41 25.96-.74 3.58-7.91 14.29-10.21 18L143 116c-2.88-.54-9.23-2.29-11.01-4.7-1.25-1.69-.99-5.24-.99-7.3-.01-5.66-1.27-14.39 0-19l-3-1v20l-1.02 7.44L117 115 83.88 73c-8.94-11.72-15.03-21.44-4.35-34.99C90.72 23.83 118.11 16.99 129 0c7.5 6.21 5.33 7.92 16 14.58zm8 110.18c-3.96.66-6.13-1.91-5.3-5.76.6-2.79 7.04-12.9 8.9-16L177 70c4.93-7.48 7.33-12.76 17-13.98 15.69-1.98 24.01 7.34 35 16.71 9.89 8.43 15.75 12.79 27 19.27l-6.12 17c-4.82 18.26-5.47 34.69-24.88 44.17-7.22 3.52-13.73 1.02-21-.8l-38-9.95c-9.55-2.65-17.07-2.27-15.85-10.37.65-4.33 4.24-4.84 7.85-6.05 7.08-2.38 12.8-3.61 19-8-7.01-.42-19.63 6.04-24 6.76zM53 155.42c-6.96 2.04-16.06 6.34-23 3.17-14.17-6.48-18.58-32.85-23.34-46.59C5.48 108.6.43 98.06 1.4 95.17c.94-2.8 10.79-9.44 13.6-11.54 9.13-6.85 25.01-18.77 36-21.11 3.01-.65 6.88-.56 10-.52 9.62.13 12.15 5.09 17.92 12l24.28 30c3.85 4.83 12.81 12.61 7.84 18.85-2.99 3.77-5.97 2.86-10.04 1.72-6.31-1.76-13.46-5.84-20-4.57l18 6.67 7.98 3.84L109 138l-56 17.42zM144.43 126c4.37 9.12-1.06 21.38-11.43 22.81-3.99.55-9.49.36-12.96-1.82-9.98-6.25-11.47-27.33 7.96-30.46 6.95-.12 13.31 2.96 16.43 9.47zm4.7 29c-1.81-2.48-4.48-5.58-3.22-8.87 1.27-3.33 4.29-2.83 7.09-2.24l17 4.48 36 9.63c4.43 1.28 12.47 2.96 15.58 6.27 3.69 3.92 3.47 9.73 3.42 14.73-.13 11.41-6.16 21.6-10.19 32-5.2 13.42-4.05 12.68-5.81 26-8.79-.9-7.34-2.98-20-3h-14c-13.05.02-24.84 4.18-35.96-6.18-6.83-6.37-5.71-12.45-6.08-20.82l-.96-12v-29c-.08-6.57-3.45-11.92 5-14.09 1.33-.19 2.63-.47 4 0 2.96.61 5.35 3.82 7.2 6.09 4.14 5.1 7.59 10.93 12.8 15-2.58-6.74-7.65-12.23-11.87-18zM127 180l1 15v16c-.01 4.29-.38 13.42-2.74 16.91-4.15 6.14-12.47 7.63-19.26 8.17L64 237c-2.94 0-12.57 1.34-14.26 0-1.61-1.27-2.45-10.04-3.41-13-3.79-11.69-11.18-22.43-11.33-35-.06-5.45-.82-14.38 2.01-18.98 3.66-5.97 10.72-7.8 16.99-9.74l31-9.86 22-6.18c3.05-.11 6.42 1.47 6.96 4.78.45 2.69-2.2 5.89-3.67 7.98-3.92 5.56-8.29 10.88-11.29 17l12.13-14 7.04-7.18H126l1 27.18z"/></svg>