<svg xmlns="http://www.w3.org/2000/svg" width="121.333" height="120" viewBox="0 0 91 90"><path fill="#263238" stroke="#212121" d="M28.48 73.66c9.7-8.51 17.61-19.6 23.74-33.27v22.44h-9.81v7.98h9.81v18.32h7.98V70.81h11.21v-7.98H60.2V40.39c5.41 11.34 13.66 22.56 24.75 33.64l5.41-7.73C75.92 53.11 66.64 40.43 62.52 28.27h25.53v-7.99H60.2V3.27C62 1.98 61.88 1.2 59.81.95h-7.59v19.33H26.17v7.99h24.36C44.6 42.21 35.32 54.89 22.69 66.3l5.79 7.36zm-1.54-70l-8.5-3.1C15.08 18.09 9.02 32.79.25 44.64l5.42 6.97c2.73-2.83 4.96-6.19 6.71-10.06v48.34h7.98V27.25c2.06-1.03 2.06-1.94 0-2.72 2.32-5.92 4.13-12.24 5.42-18.94 2.06-.25 2.45-.9 1.16-1.93z"/></svg>