<svg xmlns="http://www.w3.org/2000/svg" width="477.333" height="624.534" viewBox="0 0 895 1171"><path fill="#212121" stroke="#000" d="M560 76.71c-6.15.76-11.58.03-18 2.09-8.48 2.72-8.69 8.51-14.03 7.92-7.94-.87-6.89-9.15-6.12-14.72.23-1.65.28-3.27 1.17-4.74 1.03-1.71 4.32-3.93 5.98-5.3l16.17-12.31L563 39.78c13.03-7.55 36.02-19.61 50-24.27 16.27-5.41 38.91-9.51 56-11.8L686 1h9c4.1-.56 5.44-1.14 10-.96 24.02.93 46.74 7.32 69 16.04l19 6.87 31.71 18.54c4.57 3.88 14.58 17.76 16.73 23.51 4.56 12.18 3.7 19.68 3.56 32-.15 12.69-8.48 39.91-11.49 54l-6.17 31-3.88 16-2.07 17-6.11 24c-3.94 15.36-.58 20.01-11.43 35l-12.27 17c-1.88 2.59-5.16 7.42-7.75 9.07-2.81 1.78-6.76 1.84-10 1.38H767h-10l-23.01-3.44-17.99-9.32c-2.93-1.21-14.5-3.7-18-4.25-21.01-3.29-40.23.14-61 2.87l-45.17 6.87-29.83 7.23c-3.4.55-16.59 2.31-18.82 3.61-3.71 2.17-4.17 6.54-10.2 11.65-7.4 6.29-29.6 12.89-38.98 9.34-3.34-1.27-8.15-4.79-11-7.02-16.69-13.08-18.85-23.42-25.91-41.99l-5.73-15-4.09-16c-6.11-23.06-8.24-35.84-11.86-59-3.13-19.99-7.27-42.9-7.41-63-.1-15.18 4.1-35.06 10.17-49 4.36-10 13.19-27.26 12.83-38 5.84-.98 7.66 1.86 12 5.39 8.55 6.97 11.67 11.23 15.54 21.61l5.34 21 3.64 12 7.22 32L508 178c15.03-12.15 25.45-21.96 43-31.22l18-9.3c2.87-1.51 6.27-2.6 7.98-5.59 1.97-3.43 1.8-11.83 2.19-15.89l.83-14 2-30-22 4.71zM753.58 71c1.28-4.66 5.91-21.02 4.59-24.91-1.25-3.72-5.96-5.82-9.17-7.56-10.88-5.91-21.88-6.67-34-6.53-16.52.2-35.98 8.32-51 14.77L615 63c2.48 6.87 12.67 11.13 17.66 17.04 6.2 7.33 7.34 19.72 7.34 28.96l40-7.01c11.86-1.76 12.15-5.81 29 0 4.03 1.37 19.54 10.67 23 13.48l10 8.53 11.58-53zM673 137.35l-20 4.28c-2.8.72-9.67 2.36-11.69 4.09-2.54 2.19-2.29 5.23-2.31 8.28v28c6.67-3.15 12.78-10.7 18.09-15.83 9.07-8.77 23.86-19.9 29.91-31.17-5.57-.8-8.68 1.09-14 2.35zm47 27.61l-9 4.25-11 6.9-35 14.1-16 5.67c-2.51.57-7.28 1.15-8.66 3.6-1.12 2 .41 8.91.71 11.52l1.65 9 3.3 24c16.48-2.17 27.76-3.89 44.58-2.34 3.51.33 11.31.97 10.34-4.71-1.55-9.13-12.79-6.7-18.92-12.91 9.15 1.94 10.28-.44 18 0 4.6.34 14.3 1.87 18.37-1.03 2.98-2.13 6.71-12.31 7.77-16.01l5.32-31 4.54-21-16 9.96zm-154 24.81c-5.82 3.36-12.75 4.9-14 12.23 8.49 1.62 19.84 6.31 28 4l-2-23c-5.09 1.95-7.43 4.13-12 6.77zm73-.77l6-5c-4.14.69-4.71.96-6 5zm-118.9 32l5.12 21c2.74 8.63 6.5 16.95 7.78 26l23-5.72 23-4.37 9-1.91-4.71-14c-1.11-5.08-1.44-10.66-4.56-15-8.47-11.77-14.63-10.86-26.73-15.46l-15-6.14c-4.21-.98-7.45.59-11 0-3.19-.57-6.26-2.75-9-4.4-1.87 5.1 1.8 14.62 3.1 20zM153 207.04c16.93 6.38 45.15 26.17 58 38.96 6.62 6.59 16.7 17.84 19.34 26.99.64 2.19.5 5.58.66 8.01 7.82-3.25 18.53-3.2 27-4.43l29-3.41 12 .81c4.68.15 9.39-.03 14.01.87l8.99 2.5 15 4.26c8.06 3.47 8.68 4.99 15.01 9.08 9.89 6.38 28.22 17.15 28.95 30.32.61 11.06-5.39 12.89-13.96 17.53l-33 16.5-18 9.97 2-4-1-1c-6.99 3.3-20.37 5.67-28 3.95l-13-3.75c-3.38-1.37-3.86-2.29-8-3.36-8.7-2.25-10.07-1.36-17.96-1.89-6.34-.41-5.43-3.09-13.04-.95 7.86 2.69 22.06 10.63 16.69 20.91-1.35 2.57-10.7 10.08-13.6 12.81-9.17 8.63-15.7 17.17-27.09 23.65-7.87 4.48-16.43 6.94-25 9.63.88 2.84 2.3 5.95 1.55 8.96-1.6 6.48-14.82 12.16-20.55 19.04 32.72-15.24 54.38-23.05 91-23l25 1.32 6 1.44 7.72.82 14.28 8.98c4.34 2 16.82 6.93 19.73 9.35 2.31 1.93 3.94 5.42 5.33 8.09 9.14 17.57 1.73 31.34-5.56 48l-3.78 8-2.42 8c-4.07 11.5-11.65 27.37-21.34 34.96-5.92 4.64-12.87 5.08-19.96 3-2.93-.86-7.41-3.11-10-3.27-5.53-.36-5.67 3.28-19 3.31l-15 1-14-.96h-12L191 556c-25.14-.29-29.66-5.16-45-6.32-6.93-.52-15.12 4.91-21 8.32-3.57-2.3-7.66-4.08-10.53-7.3-8.93-9.99-16.13-29.74-19.73-42.7l-4.29-16c-2.36-5.92-7.74-12.21-6.85-18.71.52-3.83 2.71-7.74 7.12-6.81 2.96.63 16.59 8.8 23.28 8.18 4.45-.41 10.88-7.55 14-10.66l9.68-10L157 430c-5.77-1.42-12.84-1.3-17.96-4.36-6.75-4.04-10.76-20.01-12.67-27.64l-3.98-20c-.9-2.47-2.37-5.36-5.43-5.19-5.42.3-15.25 10.29-18.89 14.18L56.66 428c-2.07 2.6-5.65 7.01-6.77 10-1.39 3.69-.33 7.34-4.12 9.91-3.17 2.16-6.27 1.33-9.77 1.18-3.81-.17-4.71.34-8 .59-3.74.28-14.76-1.02-18-2.82-7.94-4.4-6.71-12.24-7.04-19.86l-1.07-10c-.45-4.2-2-6.82 0-11 2.82-6.05 6.64-7.68 11.28-11.39 6.06-4.84 12.06-10.4 17.55-15.89 11.05-11.08 24.21-30.67 33.8-43.72 4.2-5.71 12.01-19.06 12.69-26 .8-8.18-3.42-12.64-.57-14.96 2.4-1.96 11.5.93 14.36 1.78 13.77 4.12 13.96 4.76 26.01 12.04 2.28 1.38 9.45 6.96 11.08 7.14 2.98.35 11.79-4.99 14.91-6.45l8-3.06c8.68-3.64 16.67-7.61 26-9.49v-3c-7.34-2.48-9.09-6.49-15-10.11-5.16-3.16-10.56-3.48-14.16-8.91-7.7-11.6-4.64-20.16-6.1-28.98-1.35-8.19-5.92-15.62-6.56-24l.82-13 4-1-1-3 14 3.04zm87 116.79l-19 1.66c-18.63 2.53-42.89 10.43-60 18.3-7.51 3.45-24.21 11.85-29.94 17.01-7.44 6.71 2.51 10.47 6.94 9.77l15-6.12 32-11.41c7.16-2.13 14.62-2.47 22-3.21l15-1.49c1.82.08 3.13.48 5 0 4.02-1 13.18-9.3 18-12.2 5.5-3.3 15.05-8.54 18-14.14l-23 1.83zM189 383c-9.76 3.34-14.75 6.75-22.07 13.87-2.29 2.23-6.52 6.14-2.42 9.11 3.32 2.4 10.9-.75 14.49-1.7 14.81-3.92 27.75-8.95 30-26.28l-20 5zm613 43.55c2.57-.55 4.17-1.53 7-1.29 3.05.26 7.13 2.58 10 3.88 10.93 4.96 18.83 12.16 25.96 21.77 7.37 9.93 18.17 23.97 21.28 36.09.76 2.95 1.63 14.96 1.38 18-.39 4.59-2.18 7.67-1.78 16v75l-.84 11v45l.66 9-.66 12-1 39-.96 12v13l-1 12v17l-.74 19 .6 9v15.42l2.95 46.58v13l-.85 13 1 18 1 26 1 19c.01 11.72 2.28 35.33 4.29 47l2.38 9 4.33 25c1.36 27.94 16.71 62.16 17 87 .09 8.46-1.23 31.73-4.56 38.9-1.44 3.1-3.71 3.7-5.6 6.31-1.44 1.98-1.86 4.5-3.54 5.81-2.43 1.9-9.06 1.3-12.3 1.79l-7 1.99-6 .81-7 2.39 2-6c-8.93 1.52-9.91-.37-18-2.79l-11-3.01-21-3.72c-2.13-.85-7.97-3.51-9.46-4.98-1.67-1.66-1.9-3.45-4.68-5.98l-9.69-7.04-9.59-10.19c-4.94-4.96-12.78-8.44-15.58-13.29l9 2-7-8 11 1-16-11 2-5c-5.17-1.47-7.74-3.82-11-8 4.35-2.87 2.62-5.79 6.23-6.42h8.73c4.27-.11 5.05-2.58 10.04-3.37 7.92-1.24 29.86 2.81 28.85-14.21l-4.85-41-1.55-16-5.02-36-3.43-50v-54l1-16v-28l.99-20-1.09-9v-15l-.9-11v-26l.98-18v-19l2.02-31v-9l1-12 1-20v-28l1-15v-22c.09-11.7 5-57.64 7.08-70l6.6-39c1.1-14.53-9.1-13.37-17.68-16 3.38-3.56 9.99-6.22 15-5.52 2.07.28 5.01 1.68 7 2.52l1-1v-2l-13-4c2.96-4.25 6.42-2.47 11-3.45zm-590 30.12c-9.57 2.42-17.62 7.99-26 12.87l-20 10.6c-3.63 2.03-13.25 6.85-14.27 10.9-.9 3.58 4.96 10.18 6.79 13.96 1.12 2.28 4.38 10.85 6.04 11.94 1.58.95 5.52.22 7.44 0l19.58-2.07c9.38-.67 23.57-1.53 32.42-3.88 2.1-.56 8.14-1.95 9.61-2.97 2.48-1.73 6.43-10.02 7.84-13.02 3.99-8.55 11.73-32.92 12.55-42-14.23-.64-28.09.14-42 3.67zM744.01 491c-3.83 6.65-8.54 18.58-10.72 26-4.04 13.8-2.15 9.02-3.57 21l-1.89 20-1.77 9v8c-.93 7-2.98 14.31-5.08 21-4.05 12.9-8.73 21.08-14.19 33l-5.1 13c-3.23 7.06-9.19 17.28-9.92 25-.6 6.4 8.72 12.93 12.89 18.01l15.58 18.27c5 7.29 8.68 16.4 11.53 24.72 3.58 10.44 3.6 15.45 4.32 26l.91 11c.12 28.43-9.17 67.24-18.86 94-3.58 9.88-7.43 16.96-12.58 26-3.08 5.4-6.93 11.8-12.56 14.86-7.25 3.95-24.13.25-33 .65-1.37.06-11.59 3.81-22 4.4-5.73.32-13.74-2.31-17.15-7.12-1.53-2.15-2.54-7.01-3.6-9.79l-5.76-15c-2.2-7-4.14-5.9-4.72-15l1.23-14c4.32-2.71 4.91-8.33 6.27-13l8.61-31c6.54-27.58 11.44-71.14 6.51-99-2.48-14-4.71-13.79-9.13-25L612 651h4l4-8c5.47-.99 6.86.92 12 1.7 12.66 1.93 15.15 2.72 27 8.24 6.01 2.8 14.1 7.66 20 9.06.77-5.64 7.83-19.91 10.43-26l8.93-26 3.94-10 7.24-23 5.87-17c4.89-17.63 9.82-35.11 17.02-52 7.04-16.52 10.34-18.72 18.57-33 .65 5.83-4.2 11.17-6.99 16zM460 485.83c2.95.24 4.27-.96 7-.76l12 2.54c6.53 1.7 13.2 5.77 19 9.11 11.25 6.47 22.8 12.82 31.75 22.45 9.05 9.73 14.5 21.44 13.32 34.83-.26 2.93-.38 6.14-1.72 8.83-2.4 4.82-20.05 16.38-25.35 18.17 2.82 5.32 5.88 5.33 11 7.78 3.56 1.71 13.81 7.42 16.71 9.66 16.38 12.6 34.96 30.93 47.08 47.6l8.82 13.96 10.27 18c1.46 2.77 3.46 5.78 3.59 9 .26 6.75-5.95 21.17-9.47 27-6.75-1.16-9.02 2.45-15 5.14-3.02 1.35-6.76 2.77-10 3.39-8.43 1.63-9.23.49-15 8.47-2.21-1.27-5.76-3.83-8-4.31-2.77-.6-4.96 1-8.83-2.12-5.27-4.26-17.68-22.21-21.99-28.57l-10.67-15-4.95-9-5.94-8.42c-4.62-6.83-7.16-13.05-10.16-20.58-4.2-10.53-8.8-8.65-9.46-23l-7.28 7.37-11.68 9.63-32.21 37-26.51 27.83-24.6 28.17-28.48 33-32.28 46L294 839c13.25 4.25 16.59 6.5 26.99 15.72 2.94 2.61 12.13 12.05 15.01 12.79 3.54.9 11.45-4.47 15-6.07l25-11.39 7-3.62c5.85-2.51 14.08-4.57 17.28-10.45 3.05-5.61 2.05-20.93 2.72-27.98-7.22 0-12.9 1.26-20-.69-15.2-4.16-22.28-18.58-23-33.31 5.47-.26 14.06-2.45 19-4.76l7-3.9 33-17.75 9-3.9c8.05-4.06 17.55-10.58 26.71-10.78H462l10.83 1.77c9.96 1.99 13.86 1.81 18.45 12.32 1.14 2.62 2.24 5.12 2.52 8 .78 7.88-6.02 15-11.8 19.47l-39 20.82c-2.72 1.51-7.57 3.28-9.61 5.2-6.79 6.43-1.48 17.06-1.39 26.51 10.92-4.2 22.6-7.71 34-10.32l8-1.36c7.43-1.87 5.21-5.67 10.11-6.1l14.89 1.71 6 2.17c4.41 1.03 5.49-.42 9 0 10.45 1.48 26.57 8.3 26.58 20.9.01 6.15-9.48 18.68-13.17 24-3.48 5.02-10.53 14.73-14.5 19-6.44 6.9-11.09 7.72-17.87 12.75-4.55 3.37-5.43 7.3-10.06 10.82-3.55 2.71-14.27 5.63-18.98 7.01l-16.99 4.22c-2.24.74-4.42 1.79-4.97 4.3-.82 3.74 2.17 6.3 4.98 8.03l21.98 11.6c19.99 10.07 34.7 20.61 51.08 35.92 5.92 5.54 14.8 15.08 15.73 23.35 1.54 13.66-9.39 22.02-20.81 26.42-3.02 1.16-6.77 2.67-10 2.95l-16-1.53c-3.51-.39-9.99-1.36-13-2.97-8.71-4.66-20.91-21.85-27.59-29.87-4.66-5.6-12.69-15.05-14.41-22h-3c-1.63 11.57-4.57 15.85-8.75 26-1.87 4.54-2.75 7.56-5.36 12l-5.87 9c-6.26 10.5-15.12 26.02-23.2 34.99-4.06 4.5-9.11 7.7-13.82 11.46-18.63 14.85-35.88 24.56-59 30.45l-8 2.57h-7l-11 2.73-18 2.11c-2.33-.07-4.66.52-7 0-5.11-.41-7.62-3.46-12-4.18l-18-1.09-13 .96c-13.05.02-18.76-1.29-32 3 2.83-5.14 9.23-8.35 14-11.71l34.96-22.87 24.04-15.68 18-11.23c10.24-7.49 20.32-15.64 29.58-24.31l14.59-14.62L340.68 983c6.95-8.34 20.34-30.42 22.32-41l-7.72-1.28c-6.66-.42-10.4 1.84-17.28-2.08-7.12-4.07-14.22-15.69-18.69-22.64-11.11-17.27-19.84-32.38-26.29-52-2.49-7.59-4.83-10.73-5.02-19l-22.96 21.82-29.76 24.38L219 904l4-7-1-1-15 10.53-29 13.01-19 4.41-10 4.05-12 1 1-4-10 4.08h-5l-7 .92c-1.59-4.08-7.42-2.09-11-1.97H94c-4.66 1.02-7.98 3.97-13 2.97 7.45-3.4 7.73-4.86 11-12l-13 1c7.35-4.61 9.03-4.25 14-12l-14 6c4.95-5.62 10.76-5.71 11-14 8.45-4.93 29.23-20.97 35.96-28l13.13-15.91 7.91-7.13 28.04-28.22L196 801.83l19-18.79 9.63-9.04 16.62-22 23.2-30 6.26-7.28 12.8-17.72 41.71-50.58L357.29 607l12.8-15 27.71-30 10.53-14 16.54-21c5.87-7.83 21.51-27.48 23.13-36 3.37-1.21 3.55-3.74 4-7l8 1.83zM620 646l1 1v-1h-1zm-105 3l1 1v-1h-1zm-69 194.25c-2.84 1.14-7.08 1.9-8.4 4.97-1.85 4.32 3.19 16.25 3.4 25.78l8.55-10L466 837c-10.31 2.32-10.31 2.33-20 6.25zm-80.18 43.79c-2.15 2.66-4.61 6.37-4.41 9.96.26 4.7 5.18 7.65 8.59 14 2.65-.86 5.61-1.74 7.79-3.55 2.32-1.92 3.63-4.81 4.96-7.45 3.76-7.45 6.49-14.74 7.93-23l1.32-8c-7.56 1.71-21.34 12.07-26.18 18.04zM149 925l1 1v-1h-1z"/></svg>