<svg xmlns="http://www.w3.org/2000/svg" width="540" height="172" viewBox="0 0 405 129"><path fill="#303030" stroke="#212121" d="M46.55 102.03H13.84v-33.7h32.71v33.7zM13.84 57.34V24.77h32.71v32.57H13.84zm78.63-32.57v32.57H58.53V24.77h33.94zm-33.94 77.26v-33.7h33.94v33.7H58.53zm46.92-88.25H.86v107.25h12.98v-8.01h78.63v6.34h12.98V13.78zm31.58 1.11v28.49h11.99v-17.5h94.15v17.5h11.99V14.89h-53.07V5.95c3.35-2.22 3.16-3.72-.56-4.47h-12.42v13.41h-52.08zm94.66 21.24h-71.75v37.98h11.98v-3.98h18.44l-3.91 13.46h-36.56v44.71h11.99v-5.11h68.45v3.42h11.98V83.59h-43.58l4.47-13.46h16.5v2.29h11.99V36.13zM219.7 60.14h-47.78V46.11h47.78v14.03zm10.63 33.44v19.62h-68.45V93.58h68.45zm75.65-71.99c-4.84-5.58-10.61-10.42-17.31-14.51l-8.37 10.05a112.34 112.34 0 0 1 17.31 15.07l8.37-10.61zM358.5 4.84c3.34-2.23 3.16-3.72-.56-4.46h-12.42v15.07h-36.18v10.99h29.05l-10.06 21.4-18.99.57 3.91 12.84c1.49 1.49 2.42.93 2.8-1.67l66.47-5.03 8.93 8.93 9.5-7.81c-8.57-9.69-19-18.06-31.28-25.14l-8.94 5.6 12.29 9.48-32.96 1.69 12.85-20.86h46.92V15.45H358.5V4.84zm-72.62 121.77c1.86.37 2.42-.56 1.67-2.78 6.33-10.44 12.47-24.22 18.43-41.35l-10.04-6.7c-5.96 15.27-12.85 29.24-20.67 41.89l10.61 8.94zm18.43-73.17c-4.84-4.1-11.18-8.56-19-13.41l-7.25 10.61c6.7 4.84 12.84 9.5 18.42 13.97l7.83-11.17zm52.5 16.75c2.62-1.85 2.43-2.97-.54-3.35h-11.44v53.07h11.98V70.19zm12.6 46.37c0 6.57 3.25 9.86 9.75 9.86h14.53c4.47 0 7.26-2.35 8.37-7.06 1.12-4.48 1.86-9.13 2.24-13.97l-11.17-2.8-1.11 8.94c-.38 2.61-1.5 3.91-3.36 3.91h-3.35c-2.61 0-3.92-1.49-3.92-4.47V69.08c2.61-1.87 2.43-2.99-.55-3.36h-11.43v50.84zm-37.72-46.92c2.6-1.86 2.41-2.98-.56-3.36H319.7V90.3c0 11.91-6.99 21.6-20.98 29.06l7.83 9.48c16.75-8.56 25.14-20.66 25.14-36.31V69.64z"/></svg>